<?xml version="1.0" encoding="UTF-8" standalone="no"?>
<!-- Created with Inkscape (http://www.inkscape.org/) -->

<svg
   xmlns:dc="http://purl.org/dc/elements/1.1/"
   xmlns:cc="http://creativecommons.org/ns#"
   xmlns:rdf="http://www.w3.org/1999/02/22-rdf-syntax-ns#"
   xmlns:svg="http://www.w3.org/2000/svg"
   xmlns="http://www.w3.org/2000/svg"
   xmlns:sodipodi="http://sodipodi.sourceforge.net/DTD/sodipodi-0.dtd"
   xmlns:inkscape="http://www.inkscape.org/namespaces/inkscape"
   version="1.0"
   width="300"
   height="300"
   id="svg9226"
   inkscape:version="0.48.2 r9819"
   sodipodi:docname="flomar_Beef_Chart.svg"
   inkscape:export-filename="C:\Users\bahar\Documents\Tamir\Web\VealDirect\Veal128.png"
   inkscape:export-xdpi="38.400002"
   inkscape:export-ydpi="38.400002">
  <metadata
     id="metadata21">
    <rdf:RDF>
      <cc:Work
         rdf:about="">
        <dc:format>image/svg+xml</dc:format>
        <dc:type
           rdf:resource="http://purl.org/dc/dcmitype/StillImage" />
        <dc:title></dc:title>
      </cc:Work>
    </rdf:RDF>
  </metadata>
  <sodipodi:namedview
     pagecolor="#ffffff"
     bordercolor="#666666"
     borderopacity="1"
     objecttolerance="10"
     gridtolerance="10"
     guidetolerance="10"
     inkscape:pageopacity="0"
     inkscape:pageshadow="2"
     inkscape:window-width="1920"
     inkscape:window-height="1005"
     id="namedview19"
     showgrid="false"
     inkscape:zoom="1.5733333"
     inkscape:cx="181.91044"
     inkscape:cy="87.066035"
     inkscape:window-x="-9"
     inkscape:window-y="-9"
     inkscape:window-maximized="1"
     inkscape:current-layer="svg9226" />
  <defs
     id="defs3" />
  <g
     id="layer1"
     transform="matrix(1.1512621,0,0,1.1512621,-22.689315,-22.689318)">
    <g
       transform="matrix(0.5,0,0,0.5,-265.0816,-44.32091)"
       id="g9196">
      <path
         d="m 661.45498,324.5614 c 0,0 15.5,14.75 17,27 1.5,12.25 4.5,13.75 4.5,13.75 0,0 4.25,19.75 10.5,22 0,0 2,16 8.5,22.25 0,0 -1,6.25 10.5,15 0,0 7.75,10.5 13.25,10 0,0 4.75,19 9,25.5 4.25,6.5 5.5,10.25 5,25.75 0,0 3,25 -12.5,40.25 0,0 -9,9.5 -3.25,11 5.75,1.5 11.5,1.75 11.5,1.75 0,0 2,-0.75 1,1.25 -1,2 -4.75,8.75 3.75,9 8.5,0.25 24,-1.5 24,-1.5 0,0 4.25,-1.25 5,-4.5 0.75,-3.25 2.5,-10 2.5,-10 0,0 5.75,1 5.75,-10 0,-11 -1.25,-45.75 5.25,-70 6.5,-24.25 3.25,-26.25 3.25,-26.25 0,0 13,-7.25 42,-4.75 0,0 9.75,3.75 46.5,8.25 0,0 7.5,6.5 14.75,8.25 0,0 7,11.75 15.25,1.5 0,0 2.5,-2.25 9.25,-4.5 0,0 7.25,-0.25 14.75,-8.5 0,0 2.75,-3.5 12.75,-5.75 10,-2.25 28.25,-9.75 28.25,-9.75 0,0 9.5,32 16.5,43.25 l 0.81254,38.85851 c 0,0 -1.06066,14.84925 -9.8995,28.63783 -8.83883,13.78858 -8.83883,13.78858 -8.83883,13.78858 0,0 2.82842,3.18198 12.55114,3.35876 9.72272,0.17677 17.50089,0 17.50089,0 0,0 1.94458,-0.26517 3.53558,-10.25305 l 4.7729,-3.18198 c 0,0 1.9446,-1.23744 2.1213,-5.48008 0.1768,-4.24264 -1.4142,-28.8146 5.3033,-36.76955 0,0 2.6517,7.95495 0.8839,20.32932 -1.7677,12.37437 -2.4748,18.73833 -2.1213,24.92551 0,0 0.3536,4.5962 -9.1924,13.96536 0,0 -6.01038,6.18719 -0.7071,8.13173 5.3033,1.94454 19.0919,3.53553 27.4004,-0.17678 8.3085,-3.71231 9.0156,-14.14213 9.0156,-14.14213 0,0 3.7123,0.7071 3.8891,-3.53554 0.1768,-4.24264 -2.1213,-3.35875 -1.0607,-21.38998 1.0607,-18.03122 5.8337,-51.97235 5.8337,-51.97235 0,0 2.4748,-7.60139 -1.4142,-15.73312 -3.8891,-8.13173 -7.2479,-12.9047 -2.4749,-29.16816 0,0 9.7227,-23.68807 19.0919,-40.30508 0,0 1.0606,10.42982 -2.8285,23.86485 0,0 -3.3587,28.28427 0.1768,36.59278 0,0 0.7071,19.26866 4.9498,25.10229 0,0 -0.1768,13.43503 6.5407,16.44023 0,0 0.5303,-9.89949 3.5355,-16.97056 3.0052,-7.07107 2.6517,-12.37437 2.8285,-13.08148 0.1767,-0.7071 4.2426,-7.95495 3.5355,-15.9099 -0.7071,-7.95495 -1.4142,-8.13173 -1.2374,-15.2028 0.1767,-7.07106 -2.1214,-8.66205 -2.1214,-14.84924 0,-6.18718 -3.889,-9.54594 -3.7123,-17.50089 0.1768,-7.95495 -1.9445,-65.93771 -1.9445,-65.93771 0,0 -1.591,-38.18377 -22.0971,-54.44722 0,0 -10.4298,-9.01561 -25.1023,-7.07107 0,0 -8.1317,3.0052 -20.3293,2.47487 -12.1976,-0.53033 -67.52871,1.06067 -104.29826,6.18719 0,0 -30.05204,4.59619 -69.29646,0.53033 0,0 -27.40039,-1.76777 -63.99317,-3.35876 0,0 -15.9099,-0.53033 -39.59798,-10.25305 -23.68807,-9.72271 -43.13351,-16.44023 -51.61879,-15.9099 -8.48528,0.53033 -20.32932,-7.42462 -20.32932,-7.42462 0,0 -17.32412,-8.48528 -23.15775,-0.35355 -5.83363,8.13172 -4.41942,12.37437 -10.6066,17.14734 -6.18718,4.77297 -10.78338,9.01561 -12.9047,16.61701 0,0 0.53033,2.29809 -3.0052,4.24264 -3.53554,1.94454 -10.78338,7.60139 -10.78338,7.60139 0,0 -2.47487,3.71231 -8.48528,6.36397 -6.01041,2.65165 -11.31371,7.24784 -6.89429,13.25825 0,0 0.7071,16.79378 10.96015,16.44023 0,0 5.3033,10.96016 15.37957,6.01041 0,0 4.41942,-3.00521 9.72272,0 5.3033,3.0052 17.85445,2.65165 17.85445,2.65165 0,0 1.94454,7.07107 27.35697,6.60752 z"
         style="fill:#80684e;fill-opacity:1;fill-rule:evenodd;stroke:#000000;stroke-width:1px;stroke-linecap:butt;stroke-linejoin:miter;stroke-opacity:1"
         id="path4698"
         inkscape:connector-curvature="0" />
      <path
         d="m 823.0723,281.53788 c 0,0 71.9277,3.96212 147.9277,-9.53788 0,0 12.5,-1.5 35.5,-3 0,0 20,-3.5 13,12.5 0,0 34.5,30 3.5,115 0,0 -4.75,8 -2,22 0,0 8.5,25.5 -14,16 0,0 -12.25,-5.25 -18,-19.5 0,0 -5.75,-12 -21,-21 0,0 -42.5,13.25 -86.5,14.25 0,0 -60,0 -106,6.5 0,0 -2,17.5 -7.75,27.25 -5.75,9.75 -12.5,8.75 -17.25,3 -4.75,-5.75 -8.5,-14.5 -10.5,-27.25 0,0 -24.25,-4 -38.5,-44 0,0 -7,-40 -7.75,-72.75 -0.75,-32.75 0,-32.5 0,-32.5 0,0 0.5,-13.5 11.75,-8.75 11.25,4.75 47.25,16.25 47.25,16.25 0,0 15,4.5 33,5 18,0.5 37.25,1 37.3223,0.53788 z"
         style="fill:none;stroke:#c8beb7;stroke-width:2;stroke-linecap:butt;stroke-linejoin:miter;stroke-miterlimit:4;stroke-opacity:1;stroke-dasharray:none"
         id="path5585"
         inkscape:connector-curvature="0" />
      <path
         d="m 770.65801,279.94689 c 0,0 5.39168,9.36916 5.39168,38.00699 0,28.63782 -0.35355,52.67945 -0.35355,52.67945 l -74.59976,2.12132 c 0,0 -9.72272,-70.71068 -7.42463,-96.69685 0,0 -1.94454,-21.56676 11.66727,-16.44023 13.6118,5.12652 35.00178,13.08147 51.79557,17.50089 l 13.52342,2.82843 z"
         style="fill:#a4753f;fill-opacity:1;fill-rule:evenodd;stroke:#c8beb7;stroke-width:2;stroke-linecap:butt;stroke-linejoin:miter;stroke-miterlimit:4;stroke-opacity:1;stroke-dasharray:none"
         id="path5587"
         inkscape:connector-curvature="0" />
      <path
         d="m 840.92674,282.42176 c 0,0 3.18198,16.26346 6.71752,21.03643 3.53553,4.77297 -6.71752,60.45763 -6.89429,66.64481 l -65.23061,0.53033 0,44.0174 c 0,0 68.23581,-7.42462 112.96031,-6.71752 0,0 44.19418,-3.53553 63.10928,-9.89949 l 16.61701,-4.06586 c 0,0 17.14734,12.90469 20.32932,19.79899 0,0 6.01041,15.02601 16.26342,19.44543 10.2531,4.41942 15.5564,4.77297 17.6777,-3.0052 0,0 0.5303,-3.44715 -1.0607,-9.28078 -1.5909,-5.83363 -1.6793,-10.78338 -1.2374,-15.02602 0.442,-4.24264 3.8891,-12.55114 3.8891,-12.55114 l 5.1265,-16.26346 3.5356,-14.31891 c 0,0 2.5632,-13.87697 2.74,-20.68287 0.1768,-6.80591 -0.5303,-25.27907 -0.7955,-27.22362 -0.2652,-1.94454 -3.0052,-12.90469 -6.9827,-21.47836 -3.9775,-8.57367 -8.2201,-11.93243 -8.2201,-11.93243 0,0 6.7175,-12.02082 -8.4853,-12.81631 l -25.10227,2.03293 c 0,0 -20.85965,1.76777 -25.45584,3.0052 l -9.54594,1.32583 c 0,0 11.11815,18.50286 9.11815,66.00286 0,0 1,29 -7.25,45 0,0 -18,-10.75 -58.75,-13.75 0,0 6.75,-8.5 6.75,-29.75 0,-21.25 1,-44.75 -8.75,-61.75 0,0 -31.375,2.25 -51.375,1"
         style="fill:#a4753f;fill-opacity:1;fill-rule:evenodd;stroke:#c8beb7;stroke-width:2;stroke-linecap:butt;stroke-linejoin:miter;stroke-miterlimit:4;stroke-opacity:1;stroke-dasharray:none"
         id="path5589"
         inkscape:connector-curvature="0" />
      <path
         d="m 840.75,370.125 c 0,0 40.875,1.25 54.875,2.25"
         style="fill:none;stroke:#c8beb7;stroke-width:2;stroke-linecap:butt;stroke-linejoin:miter;stroke-miterlimit:4;stroke-opacity:1;stroke-dasharray:none"
         id="path7361"
         inkscape:connector-curvature="0" />
      <path
         d="m 953.60938,386.5 c 0,0 11.37499,5.24219 14.31249,7.24219"
         style="fill:none;stroke:#c8beb7;stroke-width:2;stroke-linecap:butt;stroke-linejoin:miter;stroke-miterlimit:4;stroke-opacity:1;stroke-dasharray:none"
         id="path8248"
         inkscape:connector-curvature="0" />
      <path
         d="m 734.65625,310.38851 c -5.65968,0 -10.25,4.59032 -10.25,10.25 0,5.65968 4.59032,10.25 10.25,10.25 5.65968,0 10.25,-4.59032 10.25,-10.25 0,-5.65968 -4.59032,-10.25 -10.25,-10.25 z m -0.6875,4.40625 1.59375,0 0,10.34375 2.40625,0 0,1.3125 -6.4375,0 0,-1.3125 2.46875,0 0,-8.90625 -2.65625,0.59375 0,-1.4375 2.625,-0.59375 z"
         style="color:#000000;fill:#c8beb7;fill-opacity:1;fill-rule:evenodd;stroke:none;stroke-width:2;marker:none;visibility:visible;display:inline;overflow:visible"
         id="path9136"
         inkscape:connector-curvature="0" />
      <path
         d="m 812.65625,310.38851 c -5.65968,0 -10.25,4.59032 -10.25,10.25 0,5.65968 4.59032,10.25 10.25,10.25 5.65968,0 10.25,-4.59032 10.25,-10.25 0,-5.65968 -4.59032,-10.25 -10.25,-10.25 z m -0.3125,4.3125 c 1.14062,1e-5 2.05729,0.29689 2.75,0.90625 0.69791,0.60418 1.03124,1.39063 1.03125,2.375 -10e-6,0.50001 -0.10938,1.00001 -0.34375,1.5 -0.22917,0.50001 -0.60417,1.05209 -1.125,1.65625 -0.29167,0.33855 -0.72396,0.8073 -1.28125,1.40625 -0.55209,0.59896 -1.39584,1.49479 -2.53125,2.6875 l 5.375,0 0,1.34375 -7.09375,0 0,-1.34375 c 0.97396,-1.02604 1.83333,-1.93229 2.5625,-2.71875 0.72916,-0.78645 1.22395,-1.33333 1.5,-1.65625 0.52083,-0.63541 0.8802,-1.14062 1.0625,-1.53125 0.18229,-0.39583 0.24999,-0.80728 0.25,-1.21875 -10e-6,-0.65103 -0.17709,-1.16145 -0.5625,-1.53125 -0.38021,-0.36978 -0.89584,-0.56249 -1.5625,-0.5625 -0.47396,1e-5 -0.97917,0.0781 -1.5,0.25 -0.52084,0.17189 -1.07292,0.4323 -1.65625,0.78125 l 0,-1.59375 c 0.53646,-0.2552 1.04687,-0.43228 1.5625,-0.5625 0.52083,-0.1302 1.05729,-0.18749 1.5625,-0.1875 z"
         style="color:#000000;fill:#c8beb7;fill-opacity:1;fill-rule:evenodd;stroke:none;stroke-width:2;marker:none;visibility:visible;display:inline;overflow:visible"
         id="path9142"
         inkscape:connector-curvature="0" />
      <path
         d="m 872.65625,310.38851 c -5.65968,0 -10.25,4.59032 -10.25,10.25 0,5.65968 4.59032,10.25 10.25,10.25 5.65968,0 10.25,-4.59032 10.25,-10.25 0,-5.65968 -4.59032,-10.25 -10.25,-10.25 z m -0.34375,4.1875 c 1.13541,1e-5 2.04166,0.30209 2.71875,0.875 0.68228,0.56772 1.03124,1.3073 1.03125,2.25 -10e-6,0.64063 -0.17188,1.16667 -0.53125,1.59375 -0.35417,0.42709 -0.88022,0.72917 -1.5625,0.90625 0.76562,0.20313 1.34374,0.57292 1.75,1.09375 0.40624,0.51563 0.62499,1.16146 0.625,1.9375 -10e-6,1.07292 -0.3698,1.91667 -1.09375,2.53125 -0.71876,0.60938 -1.72396,0.90625 -3,0.90625 -0.53646,0 -1.06771,-0.026 -1.625,-0.125 -0.55729,-0.099 -1.11979,-0.25 -1.65625,-0.4375 l 0,-1.5625 c 0.53125,0.27604 1.07812,0.45833 1.59375,0.59375 0.51562,0.13542 1.02083,0.21875 1.53125,0.21875 0.86458,0 1.53645,-0.20312 2,-0.59375 0.46354,-0.39062 0.68749,-0.95312 0.6875,-1.6875 -10e-6,-0.67708 -0.22396,-1.19791 -0.6875,-1.59375 -0.46355,-0.40104 -1.11459,-0.62499 -1.90625,-0.625 l -1.1875,0 0,-1.28125 1.1875,0 c 0.72395,1e-5 1.31249,-0.15103 1.71875,-0.46875 0.40624,-0.3177 0.59374,-0.77603 0.59375,-1.34375 -10e-6,-0.59895 -0.1823,-1.05728 -0.5625,-1.375 -0.37501,-0.32291 -0.92709,-0.46874 -1.625,-0.46875 -0.46355,1e-5 -0.94271,0.0521 -1.4375,0.15625 -0.49479,0.10418 -0.98959,0.26043 -1.53125,0.46875 l 0,-1.46875 c 0.63021,-0.16666 1.16666,-0.29165 1.65625,-0.375 0.49479,-0.0833 0.93229,-0.12499 1.3125,-0.125 z"
         style="color:#000000;fill:#c8beb7;fill-opacity:1;fill-rule:evenodd;stroke:none;stroke-width:2;marker:none;visibility:visible;display:inline;overflow:visible"
         id="path9144"
         inkscape:connector-curvature="0" />
      <path
         d="m 994.98929,310.38851 c -5.65968,0 -10.25,4.59032 -10.25,10.25 0,5.65968 4.59032,10.25 10.25,10.25 5.65971,0 10.25001,-4.59032 10.25001,-10.25 0,-5.65968 -4.5903,-10.25 -10.25001,-10.25 z m -3.125,4.28125 5.90625,0 0,1.34375 -4.46875,0 0,2.875 c 0.22396,-0.0833 0.46354,-0.15103 0.6875,-0.1875 0.22916,-0.0417 0.45833,-0.0625 0.6875,-0.0625 1.20833,1e-5 2.16666,0.34897 2.875,1.0625 0.70833,0.71355 1.06249,1.6875 1.0625,2.90625 -10e-6,1.22917 -0.38022,2.19792 -1.125,2.90625 -0.73959,0.70833 -1.7448,1.0625 -3.03125,1.0625 -0.6198,0 -1.20313,-0.0417 -1.71875,-0.125 -0.51042,-0.0833 -0.96875,-0.20833 -1.375,-0.375 l 0,-1.59375 c 0.47917,0.26042 0.98437,0.43229 1.46875,0.5625 0.48437,0.125 0.96354,0.1875 1.46875,0.1875 0.86979,0 1.53124,-0.22917 2,-0.6875 0.47395,-0.45833 0.71874,-1.09375 0.71875,-1.9375 -10e-6,-0.83333 -0.22917,-1.47395 -0.71875,-1.9375 -0.48438,-0.46354 -1.16146,-0.71874 -2.03125,-0.71875 -0.42188,1e-5 -0.84896,0.0573 -1.25,0.15625 -0.40104,0.0938 -0.79167,0.2448 -1.15625,0.4375 l 0,-5.875 z"
         style="color:#000000;fill:#c8beb7;fill-opacity:1;fill-rule:evenodd;stroke:none;stroke-width:2;marker:none;visibility:visible;display:inline;overflow:visible"
         id="path9146"
         inkscape:connector-curvature="0" />
      <path
         d="m 928.11924,310.38851 c -5.65968,0 -10.25,4.59032 -10.25,10.25 0,5.65968 4.59032,10.25 10.25,10.25 5.65968,0 10.25,-4.59032 10.25,-10.25 0,-5.65968 -4.59032,-10.25 -10.25,-10.25 z m 0.65625,4.40625 1.84375,0 0,7.59375 1.53125,0 0,1.28125 -1.53125,0 0,2.78125 -1.59375,0 0,-2.78125 -4.9375,0 0,-1.46875 4.6875,-7.40625 z m 0.25,1.4375 -3.65625,6.15625 3.65625,0 0,-6.15625 z"
         style="color:#000000;fill:#c8beb7;fill-opacity:1;fill-rule:evenodd;stroke:none;stroke-width:2;marker:none;visibility:visible;display:inline;overflow:visible"
         id="path9148"
         inkscape:connector-curvature="0" />
      <path
         d="m 834.87468,381.38552 c -5.65965,1e-5 -10.25,4.59032 -10.25,10.25 3e-5,5.65969 4.59032,10.25 10.25,10.25 5.65971,1e-5 10.25,-4.59032 10.25,-10.25 3e-5,-5.65967 -4.59032,-10.25 -10.25,-10.25 z m -3.65625,4.4375 7.34375,0 0,0.65625 -4.1875,11 -1.625,0 4.0625,-10.34375 -5.59375,0 0,-1.3125 z"
         style="color:#000000;fill:#c8beb7;fill-opacity:1;fill-rule:evenodd;stroke:none;stroke-width:2;marker:none;visibility:visible;display:inline;overflow:visible"
         id="path9150"
         inkscape:connector-curvature="0" />
      <path
         d="m 748.65625,381.38553 c -5.65968,0 -10.25,4.59032 -10.25,10.25 0,5.65968 4.59032,10.25 10.25,10.25 5.65968,0 10.25,-4.59032 10.25,-10.25 0,-5.65968 -4.59032,-10.25 -10.25,-10.25 z m 0.65625,4.1875 c 0.38541,10e-6 0.77083,0.0417 1.15625,0.125 0.38541,0.0781 0.76562,0.19272 1.125,0.34375 l 0,1.46875 c -0.32813,-0.1927 -0.69272,-0.33853 -1.0625,-0.4375 -0.3698,-0.10416 -0.75521,-0.15624 -1.15625,-0.15625 -1,10e-6 -1.73438,0.3698 -2.25,1.125 -0.51563,0.75001 -0.78125,1.84897 -0.78125,3.3125 0.25,-0.52083 0.58854,-0.91145 1.03125,-1.1875 0.4427,-0.28124 0.95833,-0.43749 1.53125,-0.4375 1.12499,10e-6 1.97916,0.3698 2.59375,1.0625 0.61978,0.68751 0.93749,1.64063 0.9375,2.90625 -10e-6,1.26042 -0.30209,2.24479 -0.9375,2.9375 -0.63542,0.69271 -1.53646,1.03125 -2.6875,1.03125 -1.35417,0 -2.33854,-0.46875 -2.96875,-1.4375 -0.63021,-0.97396 -0.96875,-2.5052 -0.96875,-4.59375 0,-1.96874 0.40104,-3.46874 1.15625,-4.5 0.76041,-1.03645 1.84375,-1.56249 3.28125,-1.5625 z m -0.53125,5.40625 c -0.67188,10e-6 -1.20834,0.23438 -1.59375,0.71875 -0.38542,0.48438 -0.5625,1.14584 -0.5625,2 0,0.85417 0.17708,1.54688 0.5625,2.03125 0.38541,0.48438 0.92187,0.71875 1.59375,0.71875 0.69791,0 1.20833,-0.22917 1.5625,-0.6875 0.35416,-0.46354 0.53124,-1.16146 0.53125,-2.0625 -10e-6,-0.90625 -0.17709,-1.57291 -0.53125,-2.03125 -0.35417,-0.45833 -0.86459,-0.68749 -1.5625,-0.6875 z"
         style="color:#000000;fill:#c8beb7;fill-opacity:1;fill-rule:evenodd;stroke:none;stroke-width:2;marker:none;visibility:visible;display:inline;overflow:visible"
         id="path9152"
         inkscape:connector-curvature="0" />
    </g>
  </g>
</svg>
